<svg data-name="Layer 1" xmlns="http://www.w3.org/2000/svg" viewBox="0 0 466.364 409.7"><path d="M402.901 314.3v90.2c0 4.6-.5 5.1-5.1 5.1h-121.5c-5.1 0-5.7-.5-5.7-5.6V300.6c0-5.6-.9-6.4-6.5-6.5-6.7-.1-13.4 0-20.1 0-14.2.1-28.3.1-42.5.2-5.9 0-6.6.7-6.6 6.6V404c-.1 5.2-.5 5.7-5.7 5.7h-120.5c-5.2 0-6-.8-6-5.8V225.4a17.222 17.222 0 0 1 .4-3.9c1.2-5.7 5.1-8.8 10.7-8.5 4.9.2 9 4.3 9.5 9.7.2 2.6.1 5.3.1 7.9v151.5c0 6.8.8 7.6 7.6 7.6h75.7c6.3 0 7-.7 7-7V280.3c0-5.8 0-5.9 5.8-5.9h105.4c6.3 0 6.5.2 6.5 6.5-.1 33.1-.1 66.3-.2 99.4 0 9.1.2 9.3 9.4 9.3h75.1c5.7 0 6.4-.7 6.4-6.4V225.5c0-6.6 2-10 6.9-11.8 7-2.5 13.4 1.7 13.7 9.1.2 4.5.1 9 .1 13.5q.15 39 .1 78Z" fill="#fcfcfc"/><path d="M233.001 0c9.5 8.6 18.6 16.8 27.7 25.1q94.65 85.95 189.3 172.1c5.4 4.9 10.2 10.5 15.2 15.8 1.6 1.7 1.4 3.3.3 5.3-4.6 8.3-11.6 9.8-18.7 3.5-19.4-17.4-38.7-35-58.1-52.6q-70.2-63.75-140.4-127.4c-3.9-3.5-7.8-7.1-11.7-10.6-3.1-2.8-4.7-2.8-7.7 0q-51.6 46.8-103.1 93.6c-29.4 26.7-59 53.2-88.5 79.8-5.8 5.2-11.4 10.6-17.3 15.7a20.736 20.736 0 0 1-7.3 4.3c-6 1.7-14.4-3.9-12.4-12.8a8.365 8.365 0 0 1 2.3-3.1c13-11.9 26.1-23.9 39.2-35.7q87.6-79.65 175.2-158.9c5.2-4.7 10.5-9.3 16-14.1ZM357.501 36h40.2c5.1 0 5.3.2 5.3 5.1v72.8c0 5.2-2.3 8.5-6.8 10.1-4.3 1.5-9.1.5-11.4-3.3a14.995 14.995 0 0 1-2.3-7.6c-.2-16.8-.1-33.6-.1-50.4 0-5.3-.7-6-6.1-6-18.8 0-37.5.1-56.3-.1-3.3 0-6.7-1.1-9.8-2.1-3.3-1.1-5.6-3.3-5.5-7.3.1-4.3 1.4-7.9 5.6-9.6a23.183 23.183 0 0 1 7.3-1.5c13.1-.2 26.5-.1 39.9-.1Z" fill="#fcfcfc"/></svg>