<svg xmlns="http://www.w3.org/2000/svg" width="42" height="42" xml:space="preserve"><g fill="#A8A8A8"><path d="M41.262 9.197v23.805c-.021.063-.043.126-.063.191-.221.74-.672 1.291-1.375 1.621-.188.088-.393.143-.588.213H2.819c-.047-.019-.092-.038-.141-.051-1.141-.304-1.926-1.281-1.934-2.463-.01-2.095-.006-4.188 0-6.281.002-.701.494-1.231 1.193-1.311.143-.016.287-.013.43-.021 2.379-.157 4.066-2.729 3.264-4.972-.551-1.543-1.832-2.53-3.465-2.587-.957-.034-1.441-.695-1.432-1.532.021-1.992.002-3.984.014-5.978.002-.29.053-.59.137-.868.345-1.121 1.329-1.792 2.595-1.792h34.745c.159 0 .319-.003.479.001 1.203.022 2.153.743 2.498 1.892.015.047.04.089.06.133zm-2.524 23.304V9.744H3.307v5.161l.195.061c2.584.726 4.213 2.382 4.744 5.02.652 3.259-1.469 6.505-4.709 7.282-.203.049-.248.129-.246.318.006 1.545.004 3.089.004 4.633v.282h35.443z"/><path d="M19.635 29.98c-.387-.014-.783-.24-1.01-.707-.229-.476-.178-.942.154-1.354.652-.799 1.314-1.584 1.973-2.377 1.689-2.028 3.378-4.059 5.07-6.086 1.854-2.226 3.707-4.447 5.563-6.669.559-.669 1.445-.712 1.982-.104.434.484.426 1.174-.02 1.708-1.055 1.267-2.105 2.529-3.16 3.794-3.121 3.747-6.244 7.491-9.367 11.239-.277.338-.605.556-1.185.556zm6.455-13.899c-.029 2.114-1.732 3.798-3.82 3.781-2.097-.02-3.802-1.748-3.777-3.827.025-2.106 1.758-3.817 3.822-3.779 2.123.04 3.802 1.742 3.775 3.825zm-2.539-.018a1.259 1.259 0 0 0-1.268-1.27 1.262 1.262 0 0 0-1.253 1.26c0 .709.563 1.267 1.269 1.265a1.25 1.25 0 0 0 1.252-1.255zm10.137 10.144c-.023 2.124-1.736 3.809-3.844 3.775a3.798 3.798 0 0 1-3.754-3.847 3.816 3.816 0 0 1 3.871-3.757c2.066.037 3.75 1.768 3.727 3.829zm-3.809 1.238a1.25 1.25 0 0 0 1.271-1.235 1.257 1.257 0 0 0-1.25-1.287 1.269 1.269 0 0 0-1.277 1.265 1.26 1.26 0 0 0 1.256 1.257zm-18.97-10.108h2.51v2.506h-2.51v-2.506zm-.006 5.052h2.512v2.514h-2.512v-2.514zm.004-7.618v-2.496h2.506v2.496h-2.506zm0 12.692h2.506v2.502h-2.506v-2.502z"/></g><path fill="none" d="M0 .1h42v42H0z"/></svg>