<svg xmlns="http://www.w3.org/2000/svg" width="42" height="42" xml:space="preserve"><g fill="#A8A8A8"><path d="M16.537 13.345c-1.072.008-1.912.858-1.894 1.913.015.975.947 1.927 1.854 1.899 1.145-.039 1.974-.865 1.971-1.966.001-1.096-.793-1.857-1.931-1.846zm6.272.002c-.912-.016-1.959.853-1.997 1.648-.053 1.101.856 2.111 1.926 2.139a1.936 1.936 0 0 0 1.965-1.868c.024-1.049-.824-1.906-1.894-1.919zm-12.499 0c-1.058.004-1.961.927-1.968 2.015-.006.921 1.025 1.827 2.062 1.813.952-.013 1.814-.939 1.814-1.95 0-1.082-.81-1.882-1.908-1.878z"/><path d="M11.095 31.676v-5.264H9.726c-.848 0-1.695.002-2.543 0-2.223-.008-3.992-1.749-4.004-3.977-.012-2.63-.002-5.261-.002-7.894 0-1.751-.006-3.501.002-5.252.01-1.917 1.254-3.479 3.119-3.908.305-.068.627-.091.941-.091 4.527-.007 9.057-.004 13.584-.002 1.573 0 3.147-.012 4.723.002 1.744.013 2.992.828 3.74 2.398.258.538.334 1.12.334 1.713-.004 4.05 0 8.101-.011 12.151 0 .531.013 1.07-.071 1.591-.313 1.875-1.972 3.262-3.881 3.271-2.416.006-4.83.002-7.242-.003a.762.762 0 0 0-.488.158 4370.556 4370.556 0 0 1-6.607 4.953c-.063.044-.126.083-.225.154zm2.646-5.281c.107-.08.17-.121.232-.166 1.037-.774 2.07-1.558 3.115-2.324a.73.73 0 0 1 .398-.131c2.666-.006 5.338-.006 8.006-.002.934 0 1.475-.524 1.475-1.453V9.384c0-.933-.516-1.45-1.445-1.45-3.209-.004-6.416-.004-9.625-.004-2.869 0-5.738 0-8.609.006a1.93 1.93 0 0 0-.59.072c-.558.181-.869.664-.869 1.305-.002 4.351-.002 8.699 0 13.051 0 .87.541 1.405 1.422 1.405l6.201-.002h.289v2.628z"/><path d="M38.032 14.149c-.005-2.141-1.765-4.015-3.903-4.036-1.182-.009-2.391-.113-3.568-.113H28v3h2.578c1.152 0 2.313-.072 3.463-.066.792.008 1.346.523 1.346 1.314.002 4.353.004 8.688.002 13.036 0 .911-.537 1.075-1.447 1.075-2.067 0-4.135-.359-6.2-.359H27v3.313c0-.054.1-.082.05-.117-1.034-.773-1.958-1.551-2.991-2.331-.15-.114-.233-.169-.422-.169-2.517.008-5.003.005-7.516.009l-2.763 1.979c.627.428 1.363.651 2.195.657 2.389.017 4.786.007 7.175 0a.963.963 0 0 1 .617.204c2.168 1.632 3.285 3.26 5.459 4.887.069.051-.806.1-.806.184C28 34.827 28 33 28 31h2.4c1.203 0 2.408.172 3.608.172 2.243-.004 4.017-1.658 4.021-3.893.011-4.406.011-8.724.003-13.13z"/></g><path fill="none" d="M0 .1h42.001v42H0z"/></svg>